<svg xmlns="http://www.w3.org/2000/svg" width="79" height="92" viewBox="0 0 79 92">
  <defs>
    <style>
      .cls-1 {
        fill: #fe3e57;
        fill-rule: evenodd;
      }
    </style>
  </defs>
  <path id="shape_3" class="cls-1" d="M180.329,743l-2.066-.526c0.033-.129,3.192-13.05-4-23.588-5.039-7.384-13.906-11.919-26.356-13.475-12.626-1.58-21.672-6.359-26.885-14.206-8.057-12.127-4.019-27.028-3.843-27.656l2.052,0.574c-0.04.145-3.944,14.615,3.575,25.915,4.856,7.3,13.391,11.759,25.366,13.257,13.093,1.637,22.468,6.486,27.864,14.408C183.766,729.047,180.473,742.433,180.329,743Zm13.859-12.545-2.065-.527c0.033-.129,3.191-13.049-4-23.587-5.039-7.385-13.907-11.919-26.356-13.476-12.627-1.579-21.672-6.359-26.886-14.206-8.057-12.127-4.019-27.028-3.843-27.656l2.053,0.574c-0.041.146-3.944,14.615,3.575,25.916,4.856,7.3,13.39,11.758,25.365,13.256,13.094,1.638,22.469,6.486,27.865,14.409C197.626,716.5,194.332,729.888,194.188,730.452Z" transform="translate(-116 -651)"/>
</svg>
