<svg xmlns="http://www.w3.org/2000/svg" width="13" height="125" viewBox="0 0 13 125">
  <defs>
    <style>
      .cls-1 {
        fill: #ccccce;
        fill-rule: evenodd;
      }
    </style>
  </defs>
  <path class="cls-1" d="M1613.06,435.155a2,2,0,1,0-2.06-2A2.028,2.028,0,0,0,1613.06,435.155Zm0,6.988a2,2,0,1,0,2.06,2A2.028,2.028,0,0,0,1613.06,442.143Zm0,10.98a2,2,0,1,0,2.06,2A2.028,2.028,0,0,0,1613.06,453.123Zm0,10.98a2,2,0,1,0,2.06,2A2.028,2.028,0,0,0,1613.06,464.1Zm0,10.981a2,2,0,1,0,2.06,2A2.028,2.028,0,0,0,1613.06,475.084Zm0,10.981a2,2,0,1,0,2.06,2A2.027,2.027,0,0,0,1613.06,486.065Zm0,10.98a2,2,0,1,0,2.06,2A2.028,2.028,0,0,0,1613.06,497.045Zm0,10.981a2,2,0,1,0,2.06,2A2.027,2.027,0,0,0,1613.06,508.026Zm0,10.98a2,2,0,1,0,2.06,2A2.028,2.028,0,0,0,1613.06,519.006Zm8.88-117.014a2,2,0,1,0-2.06-2A2.028,2.028,0,0,0,1621.94,401.992Zm0,6.987a2,2,0,1,0,2.06,2A2.034,2.034,0,0,0,1621.94,408.979Zm0,10.981a2,2,0,1,0,2.06,2A2.034,2.034,0,0,0,1621.94,419.96Zm0,10.98a2,2,0,1,0,2.06,2A2.034,2.034,0,0,0,1621.94,430.94Zm0,10.981a2,2,0,1,0,2.06,2A2.034,2.034,0,0,0,1621.94,441.921Zm0,10.98a2,2,0,1,0,2.06,2A2.034,2.034,0,0,0,1621.94,452.9Zm0,10.981a2,2,0,1,0,2.06,2A2.034,2.034,0,0,0,1621.94,463.882Zm0,10.98a2,2,0,1,0,2.06,2A2.034,2.034,0,0,0,1621.94,474.862Zm0,10.981a2,2,0,1,0,2.06,2A2.034,2.034,0,0,0,1621.94,485.843Z" transform="translate(-1611 -398)"/>
</svg>
