<svg xmlns="http://www.w3.org/2000/svg" width="9" height="10" viewBox="0 0 9 10">
  <defs>
    <style>
      .cls-1 {
        fill: #727272;
        fill-rule: evenodd;
      }
    </style>
  </defs>
  <path id="angle_right" class="cls-1" d="M959.907,320.768l-4.338-4.66a0.279,0.279,0,0,0-.428,0l-0.465.5a0.331,0.331,0,0,0,0,.46L958.334,321l-3.658,3.93a0.331,0.331,0,0,0,0,.46l0.465,0.5a0.279,0.279,0,0,0,.428,0l4.338-4.661A0.326,0.326,0,0,0,960,321a0.33,0.33,0,0,0-.093-0.231h0Zm0,0-3.482.231a0.326,0.326,0,0,0-.093-0.231L952,316.108a0.279,0.279,0,0,0-.428,0l-0.466.5a0.331,0.331,0,0,0,0,.46L954.759,321l-3.658,3.93a0.331,0.331,0,0,0,0,.46l0.466,0.5a0.279,0.279,0,0,0,.428,0l4.337-4.661a0.321,0.321,0,0,0,.093-0.229h0Zm0,0" transform="translate(-951 -316)"/>
</svg>
